<svg xmlns="http://www.w3.org/2000/svg" version="1.1" xmlns:xlink="http://www.w3.org/1999/xlink" xmlns:svgjs="http://svgjs.dev/svgjs" width="1000" height="212" viewBox="0 0 1000 212"><g transform="matrix(1,0,0,1,-0.6060606060606233,0.022422597092131014)"><svg viewBox="0 0 396 84" data-background-color="#000000" preserveAspectRatio="xMidYMid meet" height="212" width="1000" xmlns="http://www.w3.org/2000/svg" xmlns:xlink="http://www.w3.org/1999/xlink"><g id="tight-bounds" transform="matrix(1,0,0,1,0.2400000000000091,-0.008884425262920104)"><svg viewBox="0 0 395.52 84.01776885052587" height="84.01776885052587" width="395.52"><g><svg viewBox="0 0 397.4975999999999 84.43785769477849" height="84.01776885052587" width="395.52"><g><svg viewBox="0 0 397.4975999999999 84.43785769477849" height="84.43785769477849" width="397.4975999999999"><g id="textblocktransform"><svg viewBox="0 0 397.4975999999999 84.43785769477849" height="84.43785769477849" width="397.4975999999999" id="textblock"><g><rect width="397.4975999999999" height="3.964644989301861" x="0" y="48.633573832070944" fill="#60da4b" opacity="1" stroke-width="0" stroke="transparent" fill-opacity="1" class="rect-r$-0" data-fill-palette-color="primary" rx="1%" id="r$-0" data-palette-color="#60da4b"></rect></g><g transform="matrix(1,0,0,1,0.9887999999999693,0)"><svg viewBox="0 0 395.52 43.96318052006613" height="43.96318052006613" width="395.52"><g transform="matrix(1,0,0,1,0,0)"><svg width="395.52" viewBox="1.1 -35.45 324.83 36.11" height="43.96318052006613" data-palette-color="#60da4b"><path d="M1.1-33.62L1.1-34.3Q1.1-34.5 1.29-34.5L1.29-34.5 1.83-34.5 9.67-34.67Q11.08-34.72 12.74-34.72L12.74-34.72 15.8-34.72Q20.04-34.72 22.18-34.4 24.32-34.08 26.38-33.65 28.44-33.23 30.77-31.71 33.11-30.2 34.81-28.05L34.81-28.05Q38.43-23.46 38.43-18.14 38.43-12.82 35.64-8.59L35.64-8.59Q31.64-2.47 24.05-0.59L24.05-0.59Q21.63 0 19.09 0L19.09 0 1.29 0Q1.1 0 1.1-0.2L1.1-0.2 1.1-0.88Q1.1-1.07 1.29-1.07L1.29-1.07 1.83-1.07Q6.27-1.07 6.27-3.91L6.27-3.91 6.27-30.66Q6.27-32.03 5.22-32.73 4.17-33.42 2.86-33.42L2.86-33.42 1.29-33.42Q1.1-33.42 1.1-33.62L1.1-33.62ZM18.29-33.57L11.65-33.57Q11.04-33.57 11.04-32.91L11.04-32.91 11.04-3.05Q11.04-1.25 14.43-1.17L14.43-1.17Q15.43-1.15 16.53-1.15L16.53-1.15Q24.32-1.15 28.77-5.52 33.23-9.89 33.23-17.15 33.23-24.41 29.11-28.99 25-33.57 18.29-33.57L18.29-33.57ZM40.79-0.2L40.79-0.2 40.79-0.88Q40.79-1.07 40.99-1.07L40.99-1.07 41.53-1.07Q42.55-1.15 43.63-1.16 44.7-1.17 45.58-1.42L45.58-1.42Q47.58-2 47.58-4.35L47.58-4.35 47.58-30.08Q47.58-32.5 44.72-33.15L44.72-33.15Q43.92-33.33 43.09-33.45L43.09-33.45 42.58-33.45Q42.38-33.45 42.38-33.64L42.38-33.64 42.38-34.23Q42.38-34.42 42.58-34.42L42.58-34.42 65.79-34.42Q66.23-34.42 66.43-34.27 66.62-34.11 66.67-33.57L66.67-33.57 67.11-26.49Q67.11-26.25 66.75-26.25 66.38-26.25 66.21-26.46L66.21-26.46Q66.06-26.71 65.83-28.25 65.6-29.79 64.99-30.81 64.38-31.84 62.84-32.1L62.84-32.1 52.66-32.1Q52.34-32.1 52.34-31.79L52.34-31.79 52.34-19.17Q52.34-18.92 52.59-18.92L52.59-18.92 61.03-18.92Q64.3-18.92 64.3-22.73L64.3-22.73Q64.3-22.92 64.5-22.92L64.5-22.92 65.09-22.92Q65.28-22.92 65.28-22.73L65.28-22.73 65.28-12.28Q65.28-12.08 65.09-12.08L65.09-12.08 64.5-12.08Q64.3-12.08 64.3-12.28L64.3-12.28Q64.3-15.89 62.2-16.46L62.2-16.46Q61.62-16.6 60.96-16.6L60.96-16.6 52.59-16.6Q52.34-16.6 52.34-16.36L52.34-16.36 52.34-4.47Q52.34-2.64 54.03-2.39L54.03-2.39Q54.51-2.32 55.05-2.32L55.05-2.32 63.18-2.32Q65.7-2.32 67.09-4.54L67.09-4.54Q68.09-6.13 68.31-8.18L68.31-8.18Q68.38-8.86 69.04-8.86L69.04-8.86Q69.33-8.86 69.33-8.54L69.33-8.54 68.53-0.34Q68.38 0 68.19 0L68.19 0 40.99 0Q40.79 0 40.79-0.2ZM87.76 0L72.75 0Q72.55 0 72.55-0.49L72.55-0.49 72.55-0.78Q72.55-0.98 72.75-0.98L72.75-0.98Q72.9-0.98 73.21-1.03 73.53-1.07 73.87-1.12 74.21-1.17 74.51-1.23 74.8-1.29 74.92-1.32L74.92-1.32Q77.41-1.88 77.41-4.15L77.41-4.15 77.41-29.93Q77.41-32.03 75.73-32.91L75.73-32.91Q74.73-33.45 73.58-33.45L73.58-33.45 72.65-33.45Q72.46-33.45 72.46-33.64L72.46-33.64 72.46-34.23Q72.46-34.42 72.75-34.42L72.75-34.42 86.15-34.79 88.62-34.79Q92.94-34.5 95.86-31.65 98.77-28.81 98.77-24.65 98.77-20.48 95.31-18.16L95.31-18.16Q94.23-17.46 92.99-16.89L92.99-16.89 100.39-4.81Q102.31-1.64 105.56-0.34L105.56-0.34Q105.83-0.27 105.83 0L105.83 0Q105.83 0.61 105.02 0.61L105.02 0.61Q99.53 0.61 96.28-3.56L96.28-3.56Q95.58-4.49 94.87-5.64L94.87-5.64 88.54-15.55 82.73-15.82 82.54-15.82Q82.17-15.82 82.17-15.48L82.17-15.48 82.17-4.22Q82.17-2.88 82.93-2.22 83.69-1.56 85.54-1.32L85.54-1.32Q86.03-1.25 86.74-1.11 87.45-0.98 87.7-0.98 87.96-0.98 87.96-0.78L87.96-0.78 87.96-0.2Q87.96 0 87.76 0L87.76 0ZM84.15-33.51Q83.86-33.5 83.53-33.48 83.2-33.47 82.69-33.46 82.17-33.45 82.17-33.06L82.17-33.06 82.17-18.26 82.22-17.53Q82.29-17.02 82.69-16.99L82.69-16.99 85.18-16.85Q92.04-16.85 93.45-21.73L93.45-21.73Q93.92-23.27 93.92-25.24L93.92-25.24Q93.92-29.1 91.51-31.32 89.11-33.54 85.37-33.54L85.37-33.54Q85.03-33.54 84.74-33.53 84.44-33.52 84.15-33.51ZM118.35-0.98L118.35-0.98Q118.5-0.98 118.5-0.78L118.5-0.78 118.5-0.2Q118.5 0 118.35 0L118.35 0 106.95 0Q106.76 0 106.76-0.2L106.76-0.2 106.76-0.78Q106.76-0.98 106.95-0.98L106.95-0.98Q110.95-0.98 111.3-4.42L111.3-4.42Q111.39-5.42 111.5-7.75 111.61-10.08 112.15-17.79 112.69-25.49 112.69-30.25L112.69-30.25 112.69-31.15Q112.69-32.13 111.58-32.79 110.47-33.45 109.95-33.45 109.44-33.45 109.44-33.64L109.44-33.64 109.44-34.23Q109.44-34.42 109.64-34.42L109.64-34.42 116.69-34.42Q117.16-34.35 117.45-33.89L117.45-33.89 128.9-8.37Q129.02-8.2 129.09-8.08 129.17-7.96 129.46-7.97 129.75-7.98 129.9-8.4L129.9-8.4 141.23-33.45Q141.74-34.42 142.16-34.42L142.16-34.42 149.26-34.42Q149.46-34.42 149.46-34.23L149.46-34.23 149.46-33.64Q149.46-33.45 149.33-33.45L149.33-33.45Q148.6-33.45 147.53-32.96L147.53-32.96Q145.89-32.23 145.89-30.79L145.89-30.79 147.36-3.81Q147.4-2.54 148.67-1.76 149.94-0.98 151.99-0.98L151.99-0.98Q152.19-0.98 152.19-0.78L152.19-0.78 152.19-0.2Q152.19 0 151.99 0L151.99 0 138.13 0Q137.93 0 137.93-0.2L137.93-0.2 137.93-0.78Q137.93-0.98 138.13-0.98L138.13-0.98Q142.5-0.98 142.5-3.1L142.5-3.1 141.2-26.42Q141.18-26.66 141.07-26.66 140.96-26.66 140.89-26.44L140.89-26.44 128.75-0.17Q128.65 0 128.19 0 127.73 0 127.65-0.2L127.65-0.2 115.69-26.51Q115.54-26.86 115.41-26.86 115.28-26.86 115.28-26.32L115.28-26.32Q115.28-25.2 114.69-15.72 114.1-6.25 114.1-3.91L114.1-3.91 114.1-2.91Q114.4-1.51 116.86-1.1L116.86-1.1Q117.57-0.98 118.35-0.98ZM166.2-0.78L166.2-0.2Q166.2 0 166.01 0L166.01 0 153.53 0Q153.33 0 153.33-0.2L153.33-0.2 153.33-0.78Q153.33-0.98 153.65-0.98L153.65-0.98Q157-1.12 158.17-4.54L158.17-4.54 168.13-33.37Q168.15-33.42 168.15-33.5L168.15-33.5 167.89-34.3Q167.89-34.42 167.98-34.42L167.98-34.42 172.87-34.42Q172.91-34.4 173-34.38 173.09-34.35 173.13-34.23L173.13-34.23 183.46-5.25Q183.8-4.59 184.01-4.05 184.22-3.52 184.49-3.08L184.49-3.08Q185.07-2.08 186.42-1.54L186.42-1.54Q187.54-0.98 188.47-0.98L188.47-0.98Q188.66-0.98 188.66-0.76L188.66-0.76 188.66-0.2Q188.66 0 188.47 0L188.47 0 173.53 0Q173.33 0 173.33-0.2L173.33-0.2 173.33-0.78Q173.33-0.98 174.23-1.03 175.14-1.07 175.72-1.12L175.72-1.12Q179.12-1.49 179.12-3.42L179.12-3.42Q179.12-3.56 179.07-3.76L179.07-3.76 175.38-14.16Q175.36-14.21 175.28-14.38L175.28-14.38Q174.99-15.21 174.26-15.21L174.26-15.21 165.59-15.21Q164.86-15.21 164.44-14.4L164.44-14.4Q164.37-14.23 164.37-14.21L164.37-14.21 160.71-3.49 160.71-3.27Q160.71-2.64 161.37-2.12L161.37-2.12Q162.86-0.98 165.37-0.98L165.37-0.98 166.01-0.98Q166.2-0.98 166.2-0.78L166.2-0.78ZM166.23-17.92L173.43-17.92Q173.87-17.92 173.87-18.29L173.87-18.29Q173.87-18.48 173.77-18.73L173.77-18.73 170.13-28.74Q169.89-29.39 169.77-29.39L169.77-29.39Q169.64-29.39 169.37-28.71L169.37-28.71 165.96-18.73Q165.86-18.48 165.86-18.2 165.86-17.92 166.23-17.92L166.23-17.92ZM224.99-8.35L221.62-0.93Q221.5-0.73 221.02-0.84 220.54-0.95 219.91-0.95 219.27-0.95 218.11-0.7 216.96-0.44 214.47 0.11 211.97 0.66 209.92 0.66L209.92 0.66Q205.29 0.66 200.93-1.53 196.57-3.71 193.96-7.73 191.34-11.74 191.34-17.04 191.34-22.34 193.96-26.64L193.96-26.64Q197.77-32.93 205.43-34.84L205.43-34.84Q207.87-35.45 210.31-35.45L210.31-35.45Q213.66-35.45 218.25-34.33L218.25-34.33Q219.64-33.98 220.61-33.62 221.57-33.25 221.79-33.25L221.79-33.25 222.52-33.45 223.28-33.45Q223.57-33.45 223.57-33.03L223.57-33.03 223.57-25.44Q223.57-25.2 223.13-25.2 222.69-25.2 222.62-25.31 222.55-25.42 222.47-25.57 222.4-25.73 222.31-25.9 222.23-26.07 222.14-26.22 222.06-26.37 222.03-26.44L222.03-26.44Q218.37-33.79 210.93-33.79L210.93-33.79Q204.21-33.79 200.43-29.52 196.64-25.24 196.64-18.2 196.64-11.16 200.81-6.1 204.97-1.05 212.12-1.05L212.12-1.05Q216.03-1.05 219.24-3.37 222.45-5.69 224.28-9.06L224.28-9.06Q224.33-9.2 224.57-9.2L224.57-9.2 224.89-9.2Q225.13-9.2 225.13-8.91 225.13-8.62 224.99-8.35L224.99-8.35ZM240-0.78L240-0.2Q240 0 239.8 0L239.8 0 227.33 0Q227.13 0 227.13-0.2L227.13-0.2 227.13-0.78Q227.13-0.98 227.45-0.98L227.45-0.98Q230.8-1.12 231.97-4.54L231.97-4.54 241.93-33.37Q241.95-33.42 241.95-33.5L241.95-33.5 241.68-34.3Q241.68-34.42 241.78-34.42L241.78-34.42 246.66-34.42Q246.71-34.4 246.8-34.38 246.88-34.35 246.93-34.23L246.93-34.23 257.26-5.25Q257.6-4.59 257.81-4.05 258.02-3.52 258.29-3.08L258.29-3.08Q258.87-2.08 260.21-1.54L260.21-1.54Q261.34-0.98 262.27-0.98L262.27-0.98Q262.46-0.98 262.46-0.76L262.46-0.76 262.46-0.2Q262.46 0 262.27 0L262.27 0 247.32 0Q247.13 0 247.13-0.2L247.13-0.2 247.13-0.78Q247.13-0.98 248.03-1.03 248.94-1.07 249.52-1.12L249.52-1.12Q252.91-1.49 252.91-3.42L252.91-3.42Q252.91-3.56 252.87-3.76L252.87-3.76 249.18-14.16Q249.15-14.21 249.08-14.38L249.08-14.38Q248.79-15.21 248.06-15.21L248.06-15.21 239.39-15.21Q238.66-15.21 238.24-14.4L238.24-14.4Q238.17-14.23 238.17-14.21L238.17-14.21 234.51-3.49 234.51-3.27Q234.51-2.64 235.17-2.12L235.17-2.12Q236.65-0.98 239.17-0.98L239.17-0.98 239.8-0.98Q240-0.98 240-0.78L240-0.78ZM240.02-17.92L247.23-17.92Q247.67-17.92 247.67-18.29L247.67-18.29Q247.67-18.48 247.57-18.73L247.57-18.73 243.93-28.74Q243.69-29.39 243.56-29.39L243.56-29.39Q243.44-29.39 243.17-28.71L243.17-28.71 239.76-18.73Q239.66-18.48 239.66-18.2 239.66-17.92 240.02-17.92L240.02-17.92ZM278.86 0L263.85 0Q263.65 0 263.65-0.49L263.65-0.49 263.65-0.78Q263.65-0.98 263.85-0.98L263.85-0.98Q264-0.98 264.31-1.03 264.63-1.07 264.97-1.12 265.31-1.17 265.61-1.23 265.9-1.29 266.02-1.32L266.02-1.32Q268.51-1.88 268.51-4.15L268.51-4.15 268.51-29.93Q268.51-32.03 266.83-32.91L266.83-32.91Q265.83-33.45 264.68-33.45L264.68-33.45 263.75-33.45Q263.56-33.45 263.56-33.64L263.56-33.64 263.56-34.23Q263.56-34.42 263.85-34.42L263.85-34.42 277.25-34.79 279.72-34.79Q284.04-34.5 286.96-31.65 289.88-28.81 289.88-24.65 289.88-20.48 286.41-18.16L286.41-18.16Q285.33-17.46 284.09-16.89L284.09-16.89 291.49-4.81Q293.42-1.64 296.66-0.34L296.66-0.34Q296.93-0.27 296.93 0L296.93 0Q296.93 0.61 296.13 0.61L296.13 0.61Q290.63 0.61 287.38-3.56L287.38-3.56Q286.68-4.49 285.97-5.64L285.97-5.64 279.65-15.55 273.84-15.82 273.64-15.82Q273.27-15.82 273.27-15.48L273.27-15.48 273.27-4.22Q273.27-2.88 274.03-2.22 274.79-1.56 276.64-1.32L276.64-1.32Q277.13-1.25 277.84-1.11 278.55-0.98 278.8-0.98 279.06-0.98 279.06-0.78L279.06-0.78 279.06-0.2Q279.06 0 278.86 0L278.86 0ZM275.25-33.51Q274.96-33.5 274.63-33.48 274.3-33.47 273.79-33.46 273.27-33.45 273.27-33.06L273.27-33.06 273.27-18.26 273.32-17.53Q273.4-17.02 273.79-16.99L273.79-16.99 276.28-16.85Q283.14-16.85 284.55-21.73L284.55-21.73Q285.02-23.27 285.02-25.24L285.02-25.24Q285.02-29.1 282.61-31.32 280.21-33.54 276.47-33.54L276.47-33.54Q276.13-33.54 275.84-33.53 275.54-33.52 275.25-33.51ZM297.39-0.2L297.39-0.2 297.39-0.88Q297.39-1.07 297.59-1.07L297.59-1.07 298.12-1.07Q299.15-1.15 300.22-1.16 301.3-1.17 302.18-1.42L302.18-1.42Q304.18-2 304.18-4.35L304.18-4.35 304.18-30.08Q304.18-32.5 301.32-33.15L301.32-33.15Q300.52-33.33 299.69-33.45L299.69-33.45 299.17-33.45Q298.98-33.45 298.98-33.64L298.98-33.64 298.98-34.23Q298.98-34.42 299.17-34.42L299.17-34.42 322.39-34.42Q322.83-34.42 323.03-34.27 323.22-34.11 323.27-33.57L323.27-33.57 323.71-26.49Q323.71-26.25 323.34-26.25 322.98-26.25 322.81-26.46L322.81-26.46Q322.66-26.71 322.43-28.25 322.2-29.79 321.59-30.81 320.98-31.84 319.44-32.1L319.44-32.1 309.26-32.1Q308.94-32.1 308.94-31.79L308.94-31.79 308.94-19.17Q308.94-18.92 309.18-18.92L309.18-18.92 317.63-18.92Q320.9-18.92 320.9-22.73L320.9-22.73Q320.9-22.92 321.1-22.92L321.1-22.92 321.68-22.92Q321.88-22.92 321.88-22.73L321.88-22.73 321.88-12.28Q321.88-12.08 321.68-12.08L321.68-12.08 321.1-12.08Q320.9-12.08 320.9-12.28L320.9-12.28Q320.9-15.89 318.8-16.46L318.8-16.46Q318.22-16.6 317.56-16.6L317.56-16.6 309.18-16.6Q308.94-16.6 308.94-16.36L308.94-16.36 308.94-4.47Q308.94-2.64 310.62-2.39L310.62-2.39Q311.11-2.32 311.65-2.32L311.65-2.32 319.78-2.32Q322.29-2.32 323.69-4.54L323.69-4.54Q324.69-6.13 324.91-8.18L324.91-8.18Q324.98-8.86 325.64-8.86L325.64-8.86Q325.93-8.86 325.93-8.54L325.93-8.54 325.13-0.34Q324.98 0 324.78 0L324.78 0 297.59 0Q297.39 0 297.39-0.2Z" opacity="1" transform="matrix(1,0,0,1,0,0)" fill="#60da4b" class="wordmark-text-0" data-fill-palette-color="primary" id="text-0"></path></svg></g></svg></g><g transform="matrix(1,0,0,1,0,57.268612133377616)"><svg viewBox="0 0 395.52 27.169245561400867" height="27.169245561400867" width="395.52"><g transform="matrix(1,0,0,1,0,0)"><svg width="395.52" viewBox="3.25 -39.04 713.31 49" height="27.169245561400867" data-palette-color="#ffffff"><path d="M27.25-7.01L27.25 0 3.25 0 3.25-35.01 27.25-35.01 27.25-28 10.25-28 10.25-21 21.75-21 21.75-13.99 10.25-13.99 10.25-7.01 27.25-7.01ZM46.99-13.4L56.56 0 48.41 0 43.21-8.01 37.96 0 29.8 0 39.35-13.4 29.8-26.29 37.96-26.29 43.21-18.8 48.41-26.29 56.56-26.29 46.99-13.4ZM66.69-1.76L66.69 9.96 59.97 9.96 59.97-26.15 61.58-26.15 64.25-23Q65.15-23.85 66.22-24.61 67.3-25.37 68.46-25.92 69.62-26.46 70.86-26.78 72.11-27.1 73.38-27.1L73.38-27.1Q76.14-27.1 78.56-26.11 80.99-25.12 82.81-23.32 84.63-21.51 85.68-18.96 86.73-16.41 86.73-13.31L86.73-13.31Q86.73-10.08 85.68-7.51 84.63-4.93 82.81-3.14 80.99-1.34 78.56-0.39 76.14 0.56 73.38 0.56L73.38 0.56Q72.5 0.56 71.63 0.37 70.76 0.17 69.92-0.16 69.08-0.49 68.26-0.9 67.44-1.32 66.69-1.76L66.69-1.76ZM80.04-13.31L80.04-13.31Q80.04-14.97 79.52-16.28 78.99-17.6 78.09-18.52 77.19-19.43 75.96-19.92 74.74-20.41 73.38-20.41L73.38-20.41Q72.01-20.41 70.8-19.92 69.59-19.43 68.69-18.52 67.79-17.6 67.26-16.28 66.74-14.97 66.74-13.31L66.74-13.31Q66.74-11.72 67.26-10.4 67.79-9.08 68.69-8.15 69.59-7.23 70.8-6.71 72.01-6.2 73.38-6.2L73.38-6.2Q74.74-6.2 75.96-6.71 77.19-7.23 78.09-8.15 78.99-9.08 79.52-10.4 80.04-11.72 80.04-13.31ZM114.36-21.46L101.86-6.4Q102.25-6.27 102.64-6.24 103.03-6.2 103.42-6.2L103.42-6.2Q104.4-6.2 105.3-6.47 106.21-6.74 107-7.24 107.79-7.74 108.42-8.46 109.04-9.18 109.43-10.06L109.43-10.06 114.31-5.15Q113.39-3.83 112.18-2.78 110.97-1.73 109.56-1 108.16-0.27 106.61 0.11 105.06 0.49 103.42 0.49L103.42 0.49Q100.67 0.49 98.24-0.54 95.81-1.56 93.99-3.39 92.17-5.22 91.12-7.75 90.07-10.28 90.07-13.31L90.07-13.31Q90.07-16.41 91.12-18.97 92.17-21.53 93.99-23.34 95.81-25.15 98.24-26.15 100.67-27.15 103.42-27.15L103.42-27.15Q105.06-27.15 106.62-26.76 108.19-26.37 109.59-25.63 110.99-24.9 112.21-23.84 113.43-22.78 114.36-21.46L114.36-21.46ZM97.52-9.84L105.28-20.14Q104.82-20.31 104.36-20.36 103.91-20.41 103.42-20.41L103.42-20.41Q102.06-20.41 100.85-19.91 99.64-19.41 98.75-18.48 97.86-17.55 97.35-16.25 96.83-14.94 96.83-13.31L96.83-13.31Q96.83-12.94 96.87-12.48 96.91-12.01 96.99-11.54 97.08-11.06 97.2-10.62 97.32-10.18 97.52-9.84L97.52-9.84ZM125.42-14.4L125.42 0 118.75 0 118.75-26.15 120.36-26.15 122.56-23.05Q124.17-24.51 126.22-25.31 128.27-26.1 130.47-26.1L130.47-26.1 136.35-26.1 136.35-19.46 130.47-19.46Q129.42-19.46 128.49-19.07 127.56-18.68 126.88-17.99 126.2-17.31 125.81-16.38 125.42-15.45 125.42-14.4L125.42-14.4ZM158.66 0L153.61 0Q151.19 0 149.07-0.92 146.94-1.83 145.34-3.43 143.74-5.03 142.83-7.15 141.91-9.28 141.91-11.69L141.91-11.69 141.91-19.46 138.67-19.46 138.67-26.1 141.91-26.1 141.91-36.55 148.55-36.55 148.55-26.1 158.66-26.1 158.66-19.46 148.55-19.46 148.55-11.69Q148.55-10.64 148.94-9.73 149.34-8.81 150.02-8.13 150.7-7.45 151.63-7.04 152.56-6.64 153.61-6.64L153.61-6.64 158.66-6.64 158.66 0ZM203.43-9.69L207.14-3.59Q204.69-1.49 201.67-0.37 198.64 0.76 195.39 0.76L195.39 0.76Q192.9 0.76 190.6 0.11 188.29-0.54 186.27-1.72 184.26-2.91 182.6-4.57 180.94-6.23 179.76-8.24 178.57-10.25 177.92-12.56 177.28-14.87 177.28-17.36L177.28-17.36Q177.28-19.85 177.92-22.17 178.57-24.49 179.76-26.5 180.94-28.52 182.6-30.18 184.26-31.84 186.27-33.02 188.29-34.2 190.6-34.85 192.9-35.5 195.39-35.5L195.39-35.5Q198.64-35.5 201.67-34.39 204.69-33.28 207.14-31.15L207.14-31.15 203.43-25.05Q201.89-26.71 199.79-27.6 197.69-28.49 195.39-28.49L195.39-28.49Q193.07-28.49 191.05-27.61 189.02-26.73 187.51-25.23 185.99-23.73 185.11-21.69 184.24-19.65 184.24-17.36L184.24-17.36Q184.24-15.06 185.11-13.05 185.99-11.04 187.51-9.52 189.02-8.01 191.05-7.13 193.07-6.25 195.39-6.25L195.39-6.25Q197.69-6.25 199.79-7.14 201.89-8.03 203.43-9.69L203.43-9.69ZM235.94-26.1L235.94 0 234.33 0 231.74-3.59Q230.79-2.73 229.73-1.99 228.66-1.25 227.49-0.7 226.32-0.15 225.09 0.17 223.85 0.49 222.58 0.49L222.58 0.49Q219.83 0.49 217.4-0.44 214.97-1.37 213.15-3.14 211.33-4.91 210.28-7.47 209.23-10.03 209.23-13.31L209.23-13.31Q209.23-16.36 210.28-18.91 211.33-21.46 213.15-23.29 214.97-25.12 217.4-26.14 219.83-27.15 222.58-27.15L222.58-27.15Q223.85-27.15 225.1-26.83 226.34-26.51 227.52-25.95 228.69-25.39 229.75-24.63 230.81-23.88 231.74-23L231.74-23 234.33-26.1 235.94-26.1ZM229.22-13.31L229.22-13.31Q229.22-14.67 228.7-15.95 228.18-17.24 227.27-18.23 226.37-19.21 225.16-19.81 223.95-20.41 222.58-20.41L222.58-20.41Q221.22-20.41 220.01-19.95 218.8-19.48 217.91-18.58 217.02-17.68 216.51-16.35 215.99-15.01 215.99-13.31L215.99-13.31Q215.99-11.6 216.51-10.27 217.02-8.94 217.91-8.03 218.8-7.13 220.01-6.67 221.22-6.2 222.58-6.2L222.58-6.2Q223.95-6.2 225.16-6.8 226.37-7.4 227.27-8.39 228.18-9.38 228.7-10.66 229.22-11.94 229.22-13.31ZM248.73-14.4L248.73 0 242.06 0 242.06-26.15 243.67-26.15 245.87-23.05Q247.48-24.51 249.53-25.31 251.58-26.1 253.78-26.1L253.78-26.1 259.66-26.1 259.66-19.46 253.78-19.46Q252.73-19.46 251.8-19.07 250.87-18.68 250.19-17.99 249.51-17.31 249.12-16.38 248.73-15.45 248.73-14.4L248.73-14.4ZM286.22-21.46L273.72-6.4Q274.11-6.27 274.5-6.24 274.89-6.2 275.28-6.2L275.28-6.2Q276.26-6.2 277.16-6.47 278.07-6.74 278.86-7.24 279.65-7.74 280.27-8.46 280.9-9.18 281.29-10.06L281.29-10.06 286.17-5.15Q285.24-3.83 284.03-2.78 282.83-1.73 281.42-1 280.02-0.27 278.47 0.11 276.92 0.49 275.28 0.49L275.28 0.49Q272.52 0.49 270.09-0.54 267.67-1.56 265.85-3.39 264.03-5.22 262.98-7.75 261.93-10.28 261.93-13.31L261.93-13.31Q261.93-16.41 262.98-18.97 264.03-21.53 265.85-23.34 267.67-25.15 270.09-26.15 272.52-27.15 275.28-27.15L275.28-27.15Q276.92-27.15 278.48-26.76 280.04-26.37 281.45-25.63 282.85-24.9 284.07-23.84 285.29-22.78 286.22-21.46L286.22-21.46ZM269.37-9.84L277.14-20.14Q276.67-20.31 276.22-20.36 275.77-20.41 275.28-20.41L275.28-20.41Q273.92-20.41 272.71-19.91 271.5-19.41 270.61-18.48 269.72-17.55 269.2-16.25 268.69-14.94 268.69-13.31L268.69-13.31Q268.69-12.94 268.73-12.48 268.76-12.01 268.85-11.54 268.93-11.06 269.06-10.62 269.18-10.18 269.37-9.84L269.37-9.84ZM334.35-10.5L334.35-10.5Q334.35-8.33 333.52-6.42 332.69-4.52 331.26-3.09 329.84-1.66 327.93-0.83 326.03 0 323.85 0L323.85 0 306.35 0 306.35-35.01 323.85-35.01Q326.03-35.01 327.93-34.18 329.84-33.35 331.26-31.92 332.69-30.49 333.52-28.59 334.35-26.68 334.35-24.51L334.35-24.51Q334.35-23.54 334.08-22.51 333.82-21.48 333.33-20.53 332.84-19.58 332.16-18.8 331.47-18.02 330.64-17.5L330.64-17.5Q331.5-17.04 332.18-16.25 332.86-15.45 333.35-14.5 333.84-13.55 334.1-12.51 334.35-11.47 334.35-10.5ZM313.36-13.99L313.36-7.01 323.85-7.01Q324.59-7.01 325.22-7.28 325.86-7.54 326.33-8.02 326.81-8.5 327.08-9.13 327.35-9.77 327.35-10.5L327.35-10.5Q327.35-11.23 327.08-11.87 326.81-12.5 326.33-12.98 325.86-13.45 325.22-13.72 324.59-13.99 323.85-13.99L323.85-13.99 313.36-13.99ZM313.36-28L313.36-21 323.85-21Q324.59-21 325.22-21.26 325.86-21.53 326.33-22.01 326.81-22.49 327.08-23.13 327.35-23.78 327.35-24.51L327.35-24.51Q327.35-25.24 327.08-25.88 326.81-26.51 326.33-26.99 325.86-27.47 325.22-27.73 324.59-28 323.85-28L323.85-28 313.36-28ZM362.89-21.46L350.39-6.4Q350.78-6.27 351.17-6.24 351.56-6.2 351.95-6.2L351.95-6.2Q352.93-6.2 353.83-6.47 354.73-6.74 355.53-7.24 356.32-7.74 356.94-8.46 357.56-9.18 357.95-10.06L357.95-10.06 362.84-5.15Q361.91-3.83 360.7-2.78 359.49-1.73 358.09-1 356.69-0.27 355.14 0.11 353.58 0.49 351.95 0.49L351.95 0.49Q349.19 0.49 346.76-0.54 344.33-1.56 342.51-3.39 340.69-5.22 339.64-7.75 338.59-10.28 338.59-13.31L338.59-13.31Q338.59-16.41 339.64-18.97 340.69-21.53 342.51-23.34 344.33-25.15 346.76-26.15 349.19-27.15 351.95-27.15L351.95-27.15Q353.58-27.15 355.15-26.76 356.71-26.37 358.11-25.63 359.52-24.9 360.74-23.84 361.96-22.78 362.89-21.46L362.89-21.46ZM346.04-9.84L353.8-20.14Q353.34-20.31 352.89-20.36 352.44-20.41 351.95-20.41L351.95-20.41Q350.58-20.41 349.37-19.91 348.16-19.41 347.27-18.48 346.38-17.55 345.87-16.25 345.36-14.94 345.36-13.31L345.36-13.31Q345.36-12.94 345.39-12.48 345.43-12.01 345.52-11.54 345.6-11.06 345.72-10.62 345.85-10.18 346.04-9.84L346.04-9.84ZM392.4-26.1L392.4 0 390.79 0 388.2-3.59Q387.25-2.73 386.18-1.99 385.12-1.25 383.95-0.7 382.78-0.15 381.55 0.17 380.31 0.49 379.04 0.49L379.04 0.49Q376.28 0.49 373.85-0.44 371.43-1.37 369.61-3.14 367.79-4.91 366.74-7.47 365.69-10.03 365.69-13.31L365.69-13.31Q365.69-16.36 366.74-18.91 367.79-21.46 369.61-23.29 371.43-25.12 373.85-26.14 376.28-27.15 379.04-27.15L379.04-27.15Q380.31-27.15 381.56-26.83 382.8-26.51 383.97-25.95 385.15-25.39 386.21-24.63 387.27-23.88 388.2-23L388.2-23 390.79-26.1 392.4-26.1ZM385.68-13.31L385.68-13.31Q385.68-14.67 385.16-15.95 384.63-17.24 383.73-18.23 382.83-19.21 381.62-19.81 380.41-20.41 379.04-20.41L379.04-20.41Q377.68-20.41 376.47-19.95 375.26-19.48 374.37-18.58 373.48-17.68 372.96-16.35 372.45-15.01 372.45-13.31L372.45-13.31Q372.45-11.6 372.96-10.27 373.48-8.94 374.37-8.03 375.26-7.13 376.47-6.67 377.68-6.2 379.04-6.2L379.04-6.2Q380.41-6.2 381.62-6.8 382.83-7.4 383.73-8.39 384.63-9.38 385.16-10.66 385.68-11.94 385.68-13.31ZM419.93 0L417.73-3.05Q416.93-2.32 416.01-1.67 415.1-1.03 414.1-0.55 413.09-0.07 412.03 0.21 410.97 0.49 409.87 0.49L409.87 0.49Q407.45 0.49 405.33-0.37 403.21-1.22 401.61-2.8 400.01-4.37 399.09-6.63 398.18-8.89 398.18-11.69L398.18-11.69 398.18-26.15 404.82-26.15 404.82-11.69Q404.82-10.38 405.22-9.34 405.62-8.3 406.31-7.59 406.99-6.88 407.91-6.52 408.82-6.15 409.87-6.15L409.87-6.15Q410.9-6.15 411.81-6.63 412.73-7.1 413.41-7.89 414.1-8.67 414.49-9.66 414.88-10.64 414.88-11.69L414.88-11.69 414.88-26.15 421.54-26.15 421.54 0 419.93 0ZM445.83 0L440.77 0Q438.36 0 436.23-0.92 434.11-1.83 432.51-3.43 430.91-5.03 430-7.15 429.08-9.28 429.08-11.69L429.08-11.69 429.08-19.46 425.83-19.46 425.83-26.1 429.08-26.1 429.08-36.55 435.72-36.55 435.72-26.1 445.83-26.1 445.83-19.46 435.72-19.46 435.72-11.69Q435.72-10.64 436.11-9.73 436.5-8.81 437.19-8.13 437.87-7.45 438.8-7.04 439.72-6.64 440.77-6.64L440.77-6.64 445.83-6.64 445.83 0ZM458.47-33.25L458.47-33.25Q458.47-32.32 458.11-31.52 457.76-30.71 457.15-30.11 456.54-29.52 455.72-29.16 454.9-28.81 453.98-28.81L453.98-28.81Q453.05-28.81 452.23-29.16 451.41-29.52 450.81-30.11 450.22-30.71 449.86-31.52 449.51-32.32 449.51-33.25L449.51-33.25Q449.51-34.16 449.86-34.97 450.22-35.79 450.81-36.39 451.41-36.99 452.23-37.34 453.05-37.7 453.98-37.7L453.98-37.7Q454.9-37.7 455.72-37.34 456.54-36.99 457.15-36.39 457.76-35.79 458.11-34.97 458.47-34.16 458.47-33.25ZM457.32-26.15L457.32 0 450.61 0 450.61-26.15 457.32-26.15ZM471.91-19.51L471.91 0 465.25 0 465.25-19.51 462-19.51 462-26.15 465.25-26.15 465.25-27.39Q465.25-29.81 466.16-31.93 467.08-34.06 468.68-35.63 470.28-37.21 472.4-38.12 474.53-39.04 476.94-39.04L476.94-39.04 481.95-39.04 481.95-32.4 476.94-32.4Q475.87-32.4 474.95-32.02 474.04-31.64 473.37-30.97 472.7-30.3 472.31-29.38 471.91-28.47 471.91-27.39L471.91-27.39 471.91-26.15 480.09-26.15 480.09-19.51 471.91-19.51ZM505.5 0L503.3-3.05Q502.5-2.32 501.58-1.67 500.67-1.03 499.67-0.55 498.67-0.07 497.6 0.21 496.54 0.49 495.44 0.49L495.44 0.49Q493.03 0.49 490.9-0.37 488.78-1.22 487.18-2.8 485.58-4.37 484.66-6.63 483.75-8.89 483.75-11.69L483.75-11.69 483.75-26.15 490.39-26.15 490.39-11.69Q490.39-10.38 490.79-9.34 491.2-8.3 491.88-7.59 492.56-6.88 493.48-6.52 494.39-6.15 495.44-6.15L495.44-6.15Q496.47-6.15 497.38-6.63 498.3-7.1 498.98-7.89 499.67-8.67 500.06-9.66 500.45-10.64 500.45-11.69L500.45-11.69 500.45-26.15 507.11-26.15 507.11 0 505.5 0ZM519.95-36.55L519.95 0 513.24 0 513.24-36.55 519.95-36.55ZM555.83-28L548.82-28 548.82-13.99 555.83-13.99Q557.27-13.99 558.54-14.54 559.81-15.09 560.76-16.04 561.71-16.99 562.26-18.27 562.81-19.56 562.81-21L562.81-21Q562.81-22.44 562.26-23.72 561.71-25 560.76-25.95 559.81-26.9 558.54-27.45 557.27-28 555.83-28L555.83-28ZM548.82-7.01L548.82 0 541.81 0 541.81-35.01 555.83-35.01Q557.75-35.01 559.54-34.51 561.32-34.01 562.87-33.09 564.42-32.18 565.7-30.9 566.98-29.61 567.9-28.05 568.81-26.49 569.31-24.71 569.82-22.92 569.82-21L569.82-21Q569.82-19.19 569.36-17.48 568.91-15.77 568.07-14.23 567.23-12.7 566.01-11.4 564.79-10.11 563.27-9.16L563.27-9.16 567.15 0 559.71 0 556.66-7.06 548.82-7.01ZM597.35-21.46L584.85-6.4Q585.24-6.27 585.63-6.24 586.02-6.2 586.41-6.2L586.41-6.2Q587.39-6.2 588.29-6.47 589.19-6.74 589.99-7.24 590.78-7.74 591.4-8.46 592.03-9.18 592.42-10.06L592.42-10.06 597.3-5.15Q596.37-3.83 595.16-2.78 593.95-1.73 592.55-1 591.15-0.27 589.6 0.11 588.05 0.49 586.41 0.49L586.41 0.49Q583.65 0.49 581.22-0.54 578.79-1.56 576.97-3.39 575.16-5.22 574.11-7.75 573.06-10.28 573.06-13.31L573.06-13.31Q573.06-16.41 574.11-18.97 575.16-21.53 576.97-23.34 578.79-25.15 581.22-26.15 583.65-27.15 586.41-27.15L586.41-27.15Q588.05-27.15 589.61-26.76 591.17-26.37 592.58-25.63 593.98-24.9 595.2-23.84 596.42-22.78 597.35-21.46L597.35-21.46ZM580.5-9.84L588.27-20.14Q587.8-20.31 587.35-20.36 586.9-20.41 586.41-20.41L586.41-20.41Q585.04-20.41 583.84-19.91 582.63-19.41 581.74-18.48 580.84-17.55 580.33-16.25 579.82-14.94 579.82-13.31L579.82-13.31Q579.82-12.94 579.86-12.48 579.89-12.01 579.98-11.54 580.06-11.06 580.19-10.62 580.31-10.18 580.5-9.84L580.5-9.84ZM616.09 0L616.09 0 600.86 0 600.86-6.64 616.09-6.64Q616.78-6.64 617.26-7.13 617.75-7.62 617.75-8.3L617.75-8.3Q617.75-9.01 617.26-9.23 616.78-9.45 616.09-9.45L616.09-9.45 609.16-9.45Q607.43-9.45 605.91-10.11 604.4-10.77 603.28-11.9 602.15-13.04 601.51-14.55 600.86-16.06 600.86-17.8L600.86-17.8Q600.86-19.53 601.51-21.04 602.15-22.56 603.28-23.68 604.4-24.8 605.91-25.45 607.43-26.1 609.16-26.1L609.16-26.1 622.66-26.1 622.66-19.46 609.16-19.46Q608.48-19.46 607.99-18.97 607.5-18.48 607.5-17.8L607.5-17.8Q607.5-17.09 607.99-16.59 608.48-16.09 609.16-16.09L609.16-16.09 616.09-16.09Q617.8-16.09 619.32-15.52 620.83-14.94 621.95-13.92 623.07-12.89 623.73-11.45 624.39-10.01 624.39-8.3L624.39-8.3Q624.39-6.57 623.73-5.07 623.07-3.56 621.95-2.43 620.83-1.29 619.32-0.65 617.8 0 616.09 0ZM650.39 0L648.19-3.05Q647.39-2.32 646.47-1.67 645.55-1.03 644.55-0.55 643.55-0.07 642.49 0.21 641.43 0.49 640.33 0.49L640.33 0.49Q637.91 0.49 635.79-0.37 633.66-1.22 632.07-2.8 630.47-4.37 629.55-6.63 628.64-8.89 628.64-11.69L628.64-11.69 628.64-26.15 635.28-26.15 635.28-11.69Q635.28-10.38 635.68-9.34 636.08-8.3 636.77-7.59 637.45-6.88 638.36-6.52 639.28-6.15 640.33-6.15L640.33-6.15Q641.36-6.15 642.27-6.63 643.19-7.1 643.87-7.89 644.55-8.67 644.94-9.66 645.33-10.64 645.33-11.69L645.33-11.69 645.33-26.15 652-26.15 652 0 650.39 0ZM664.84-36.55L664.84 0 658.12 0 658.12-36.55 664.84-36.55ZM689.12 0L684.07 0Q681.65 0 679.53-0.92 677.4-1.83 675.8-3.43 674.2-5.03 673.29-7.15 672.37-9.28 672.37-11.69L672.37-11.69 672.37-19.46 669.13-19.46 669.13-26.1 672.37-26.1 672.37-36.55 679.01-36.55 679.01-26.1 689.12-26.1 689.12-19.46 679.01-19.46 679.01-11.69Q679.01-10.64 679.4-9.73 679.8-8.81 680.48-8.13 681.16-7.45 682.09-7.04 683.02-6.64 684.07-6.64L684.07-6.64 689.12-6.64 689.12 0ZM708.26 0L708.26 0 693.02 0 693.02-6.64 708.26-6.64Q708.94-6.64 709.43-7.13 709.92-7.62 709.92-8.3L709.92-8.3Q709.92-9.01 709.43-9.23 708.94-9.45 708.26-9.45L708.26-9.45 701.32-9.45Q699.59-9.45 698.08-10.11 696.56-10.77 695.44-11.9 694.32-13.04 693.67-14.55 693.02-16.06 693.02-17.8L693.02-17.8Q693.02-19.53 693.67-21.04 694.32-22.56 695.44-23.68 696.56-24.8 698.08-25.45 699.59-26.1 701.32-26.1L701.32-26.1 714.82-26.1 714.82-19.46 701.32-19.46Q700.64-19.46 700.15-18.97 699.66-18.48 699.66-17.8L699.66-17.8Q699.66-17.09 700.15-16.59 700.64-16.09 701.32-16.09L701.32-16.09 708.26-16.09Q709.97-16.09 711.48-15.52 712.99-14.94 714.12-13.92 715.24-12.89 715.9-11.45 716.56-10.01 716.56-8.3L716.56-8.3Q716.56-6.57 715.9-5.07 715.24-3.56 714.12-2.43 712.99-1.29 711.48-0.65 709.97 0 708.26 0Z" opacity="1" transform="matrix(1,0,0,1,0,0)" fill="#ffffff" class="slogan-text-1" data-fill-palette-color="secondary" id="text-1"></path></svg></g></svg></g></svg></g></svg></g></svg></g><defs></defs></svg><rect width="395.52" height="84.01776885052587" fill="none" stroke="none" visibility="hidden"></rect></g></svg></g></svg>